<?xml version="1.0" encoding="utf-8"?>
<!-- Generator: Adobe Illustrator 18.1.1, SVG Export Plug-In . SVG Version: 6.00 Build 0)  -->
<svg version="1.1" id="Layer_1" xmlns="http://www.w3.org/2000/svg" xmlns:xlink="http://www.w3.org/1999/xlink" x="0px" y="0px"
	 viewBox="0 0 200 50" enable-background="new 0 0 200 50" xml:space="preserve">
<g>
	<path d="M62.6,15.9l1.7-6.7c0.1-0.2,0.1-0.4,0.2-0.5c0-0.1,0.1-0.2,0.2-0.3c0.1-0.1,0.2-0.2,0.4-0.2c0.2,0,0.4-0.1,0.7-0.1h2.2
		c0.6,0,0.9,0.1,1.1,0.4c0.2,0.2,0.2,0.6,0.1,1.1l-0.5,2h-2.2l0.4-1.8h-0.6L65,15.2h0.6l0.5-1.8h2.2l-0.6,2.4
		c-0.1,0.4-0.2,0.7-0.4,0.8C67,16.9,66.7,17,66.3,17h-2.6c-0.3,0-0.5,0-0.7,0c-0.2,0-0.3-0.1-0.4-0.1c-0.1-0.1-0.1-0.2-0.1-0.3
		C62.5,16.3,62.6,16.1,62.6,15.9z"/>
	<path d="M75.2,8.2L73,16.9h-3.4c-0.6,0-1-0.1-1.1-0.4c-0.1-0.3-0.1-0.7,0-1.2l1.8-7.1h2.2l-1.8,7h0.6l1.7-7H75.2z"/>
	<path d="M73.8,16.9L76,8.2h3.7c0.4,0,0.7,0.1,0.9,0.4c0.2,0.3,0.2,0.6,0.1,1.1l-0.5,1.8c-0.1,0.3-0.3,0.6-0.6,0.8
		c-0.4,0.2-0.7,0.3-0.9,0.3c0.1,0,0.2,0.1,0.4,0.1c0.1,0,0.2,0.1,0.4,0.2c0.1,0.1,0.2,0.2,0.3,0.4c0,0.1,0,0.3,0,0.5l-0.5,1.9
		c-0.1,0.3-0.1,0.5-0.2,0.6c-0.1,0.2-0.2,0.3-0.3,0.4c-0.1,0.1-0.3,0.2-0.5,0.2c-0.2,0-0.4,0.1-0.7,0H73.8z M76.9,13.5l-0.5,1.8H77
		l0.5-1.8H76.9z M77.8,9.9l-0.4,1.8h0.6l0.5-1.8H77.8z"/>
	<path d="M79.5,17l2.2-8.8H86l-0.5,1.8h-2l-0.4,1.8h2l-0.4,1.8h-2l-0.5,1.8h2L83.8,17H79.5z"/>
	<path d="M86.3,9.5c0.1-0.4,0.2-0.8,0.4-1c0.2-0.2,0.5-0.3,1-0.3h2.5c0.3,0,0.6,0,0.7,0.1c0.1,0.1,0.3,0.2,0.3,0.3
		c0,0.1,0.1,0.2,0,0.4c0,0.2-0.1,0.3-0.1,0.4l-0.3,1.4h-2.1L89,9.9h-0.8l-0.4,1.8h2.8l-1,4.1c-0.1,0.4-0.2,0.7-0.4,0.9
		c-0.2,0.2-0.5,0.3-1,0.3h-2.5c-0.4,0-0.7-0.1-0.9-0.4c-0.2-0.2-0.2-0.5-0.2-0.9l0.3-1.3h2.1L87,15.2h0.8l0.4-1.7h-2.8L86.3,9.5z"/>
	<path d="M95,17c-0.4,0-0.6-0.1-0.7-0.3c-0.2-0.2-0.2-0.5-0.1-0.8l1.6-6.4c0.1-0.4,0.2-0.7,0.5-0.9c0.2-0.3,0.5-0.4,0.9-0.4h2.5
		c0.4,0,0.7,0.1,0.9,0.4c0.2,0.3,0.3,0.6,0.1,1l-1.5,6c-0.1,0.4-0.3,0.8-0.5,1c-0.2,0.2-0.5,0.3-0.9,0.3H95z M97.9,9.9l-1.3,5.3h0.5
		l1.3-5.3H97.9z"/>
	<path d="M99.5,17l2.2-8.8h4.3l-0.5,1.7h-2l-0.5,1.8h2l-0.5,1.8h-2l-0.9,3.5H99.5z"/>
	<path d="M115.3,8.2l-1.7,7h0.7l1.8-7h2.1l-2.2,8.8h-6.2c-0.5,0-0.8-0.1-1-0.3c-0.2-0.2-0.2-0.7-0.1-1.4l1.7-7h2.1l-1.7,7h0.7l1.6-7
		H115.3z"/>
	<path d="M116.8,17l2.2-8.8h3.3c0.4,0,0.7,0.1,0.9,0.3c0.2,0.2,0.4,0.5,0.4,0.9l-0.8,3c0,0.2-0.1,0.4-0.2,0.5
		c-0.1,0.1-0.2,0.2-0.3,0.3c-0.1,0.1-0.2,0.1-0.4,0.2c-0.1,0-0.2,0.1-0.3,0.1l0.6,3.5H120l-0.4-2.8L119,17H116.8z M120.7,10
		l-0.5,1.7h0.6l0.4-1.7H120.7z"/>
	<path d="M122.7,16.9l2-7.6c0.1-0.4,0.3-0.7,0.4-0.9c0.2-0.2,0.5-0.3,1-0.3h2.3c0.3,0,0.5,0,0.7,0.1c0.2,0,0.3,0.1,0.4,0.2
		c0.1,0.1,0.1,0.3,0.1,0.6c0,0.2-0.1,0.5-0.2,0.9l-1.8,7h-2.2l0.9-3.5h-0.6l-0.9,3.5L122.7,16.9z M126.2,11.7h0.5l0.4-1.8h-0.6
		L126.2,11.7z"/>
	<path d="M131.7,16.9h-2.1l1.7-7h-1l0.4-1.7h4.3l-0.4,1.7h-1.1L131.7,16.9z"/>
	<path d="M133.6,17l2.2-8.8h2.2l-0.9,3.5h0.6l0.9-3.5h2.2l-2.2,8.8h-2.1l0.8-3.5h-0.5l-0.9,3.5H133.6z"/>
</g>
</svg>
